<svg xmlns="http://www.w3.org/2000/svg" viewBox="0 0 32 32" id="feather"><path d="M23.531 4.506c-1.036 0-2.073.379-2.828 1.135l-.353.353a.499.499 0 0 0-.147.354v.914h-.914a.503.503 0 0 0-.353.146l-3.547 3.547-1.328 1.414a.501.501 0 0 0-.137.342v1h-1.086a.503.503 0 0 0-.354.146L9.742 16.6a.5.5 0 0 0-.144.392l.336 4.365-4.788 4.79a.5.5 0 0 0 .708.707l4.789-4.79 4.365.338c.013.002.024.002.037.002a.51.51 0 0 0 .355-.146l1.414-1.414a.497.497 0 0 0 .145-.354v-.914h.914a.507.507 0 0 0 .356-.146l3.535-3.535a.499.499 0 0 0 .146-.354v-1.623h1.621c.133 0 .26-.054.354-.147l2.474-2.474a3.971 3.971 0 0 0 1.172-2.828A3.971 3.971 0 0 0 26.36 5.64c-.755-.756-1.791-1.135-2.828-1.135zm0 .992c.777 0 1.555.283 2.121.85a2.98 2.98 0 0 1 .88 2.12c0 .803-.314 1.555-.88 2.122l-.191.191-3.283-.252 2.06-2.06a.5.5 0 0 0-.707-.707l-2.06 2.06-.022-.283c-.02-.276-.276-.497-.535-.46a.501.501 0 0 0-.46.536l.087 1.137-1.191 1.191-.254-3.283.4-.398h1.207a.5.5 0 0 0 .5-.5V6.555l.207-.207c.567-.567 1.344-.85 2.121-.85zm-5.365 4.094.254 3.283-1.19 1.19-.08-1.04c-.02-.276-.284-.502-.537-.46a.5.5 0 0 0-.459.537l.145 1.894-1.192 1.19-.021-.284c-.021-.276-.284-.5-.537-.46a.5.5 0 0 0-.46.537l.089 1.138-1.19 1.19-.254-3.284.31-.312h1.38a.5.5 0 0 0 .5-.5v-1.3l1.183-1.26 2.059-2.06zm3.082 1.867 3.283.252-1.207 1.207H21.41a.5.5 0 0 0-.5.5v1.916l-1.812 1.81-3.284-.251 1.19-1.19 1.894.145c.013.002.026.002.04.002a.498.498 0 0 0 .035-.998l-1.037-.08 3.312-3.313zm-9.445 4.496.254 3.283-1.19 1.19-.254-3.283 1.19-1.19zm3.08 1.87 3.283.253-.5.498h-1.207a.5.5 0 0 0-.5.5v1.207l-1.104 1.104-3.283-.252 1.19-1.19 1.713.131c.013.002.025.002.039.002a.5.5 0 0 0 .037-.998l-.858-.066 1.19-1.19z"></path></svg>